<?xml version="1.0" ?><!DOCTYPE svg  PUBLIC '-//W3C//DTD SVG 1.1//EN'  'http://www.w3.org/Graphics/SVG/1.1/DTD/svg11.dtd'><svg enable-background="new -10.5 -221 1024 1024" height="1024px" version="1.1" viewBox="-10.5 -221 1024 1024" width="1024px" xml:space="preserve" xmlns="http://www.w3.org/2000/svg" xmlns:xlink="http://www.w3.org/1999/xlink"><defs/><path d="M888.06,521.5V29c0-16.02-12.979-29-29-29h-715.5c-16.01,0-29,12.98-29,29v492.5H0V554l0,0  c3.74,4.35,22.35,17.79,73.83,16.67l844-0.34c0,0,65.88,0.95,88.67-16.33l0,0v-32.5H888.06z M501.31,21.33  c2.28,0,4.13,1.85,4.13,4.13c0,2.28-1.851,4.12-4.13,4.12c-2.28,0-4.12-1.84-4.12-4.12C497.19,23.18,499.03,21.33,501.31,21.33z   M156.81,44h689v434h-689V44z M575.5,527.75c0,4.97-4.03,9-9,9h-136c-4.97,0-9-4.03-9-9V522h154V527.75z M946.38,538.75h-34.76  c-0.62,0-1.12-0.5-1.12-1.13c0-0.62,0.5-1.12,1.12-1.12h34.76c0.62,0,1.12,0.5,1.12,1.12C947.5,538.25,947,538.75,946.38,538.75z" fill="#212121"/></svg>