<?xml version="1.0" encoding="UTF-8"?>
<!DOCTYPE svg PUBLIC "-//W3C//DTD SVG 1.1//EN" "http://www.w3.org/Graphics/SVG/1.1/DTD/svg11.dtd">
<!-- Creator: CorelDRAW X6 -->
<svg fill="currentColor" xmlns="http://www.w3.org/2000/svg" xml:space="preserve" width="100%" height="100%" version="1.1" style="shape-rendering:geometricPrecision; text-rendering:geometricPrecision; image-rendering:optimizeQuality; fill-rule:evenodd; clip-rule:evenodd"
viewBox="0 0 500 500"
 xmlns:xlink="http://www.w3.org/1999/xlink">
 <defs>
  <style type="text/css">
   <![CDATA[
    .fil0 {fill:#202020}
   ]]>
  </style>
 </defs>
 <g id="Layer_x0020_1">
  <metadata id="CorelCorpID_0Corel-Layer"/>
  <path class="filf" d="M148 20l204 0c14,0 26,12 26,26l0 408c0,15 -12,26 -26,26l-204 0c-14,0 -26,-11 -26,-26l0 -408c0,-14 12,-26 26,-26zm-8 45l220 0 0 350 -220 0 0 -350zm110 360c11,0 20,9 20,20 0,11 -9,20 -20,20 -11,0 -20,-9 -20,-20 0,-11 9,-20 20,-20zm-25 -390c3,0 5,2 5,5 0,3 -2,5 -5,5 -3,0 -5,-2 -5,-5 0,-3 2,-5 5,-5zm25 0c3,0 5,2 5,5 0,3 -2,5 -5,5 -3,0 -5,-2 -5,-5 0,-3 2,-5 5,-5zm25 0c3,0 5,2 5,5 0,3 -2,5 -5,5 -3,0 -5,-2 -5,-5 0,-3 2,-5 5,-5zm-115 3c4,0 8,3 8,7 0,4 -4,8 -8,8 -4,0 -7,-4 -7,-8 0,-4 3,-7 7,-7zm26 403c3,1 6,3 6,7 0,1 -1,3 -2,3 -2,0 -4,-1 -5,-2 0,0 -2,-3 -2,-4 0,0 -1,-2 -3,-2 -2,-1 -8,-1 -10,0 -2,0 -3,2 -3,2 0,1 -2,4 -2,4 -1,1 -3,2 -5,2 -1,0 -2,-2 -2,-3 0,-4 3,-6 6,-7 7,-2 15,-2 22,0zm150 0c3,1 6,3 6,7 0,1 -1,3 -2,3 -1,0 -4,-1 -5,-2 0,0 -2,-3 -2,-4 0,0 -1,-2 -3,-2 -2,-1 -8,-1 -10,0 -2,0 -3,2 -3,2 0,1 -2,4 -2,4 -1,1 -3,2 -5,2 -1,0 -2,-2 -2,-3 0,-4 3,-6 6,-7 7,-2 15,-2 22,0zm-8 5l1 1c0,0 0,0 0,1l-2 1c0,1 0,1 0,1l2 2c0,0 0,0 0,0l-1 2c-1,0 -1,0 -1,0l-2 -2c0,0 0,0 0,0l-2 2c0,0 0,0 -1,0l-1 -2c0,0 0,0 0,0l2 -2c0,0 0,0 0,-1l-2 -1c0,-1 0,-1 0,-1l1 -1c1,0 1,0 1,0l2 2c0,0 0,0 0,0l2 -2c0,0 0,0 1,0z"/>
 </g>
</svg>
